<?xml version="1.0" encoding="utf-8"?>
<!-- Generated by IcoMoon.io -->
<!DOCTYPE svg PUBLIC "-//W3C//DTD SVG 1.1//EN" "http://www.w3.org/Graphics/SVG/1.1/DTD/svg11.dtd">
<svg version="1.1" xmlns="http://www.w3.org/2000/svg" xmlns:xlink="http://www.w3.org/1999/xlink" width="32" height="32" viewBox="0 0 32 32">
<path fill="#444444" d="M26 8.5c0 1.381-1.119 2.5-2.5 2.5s-2.5-1.119-2.5-2.5c0-1.381 1.119-2.5 2.5-2.5s2.5 1.119 2.5 2.5zM12 8.5c0 1.381-1.119 2.5-2.5 2.5s-2.5-1.119-2.5-2.5c0-1.381 1.119-2.5 2.5-2.5s2.5 1.119 2.5 2.5zM26 22.5c0 1.381-1.119 2.5-2.5 2.5s-2.5-1.119-2.5-2.5c0-1.381 1.119-2.5 2.5-2.5s2.5 1.119 2.5 2.5zM12 22.5c0 1.381-1.119 2.5-2.5 2.5s-2.5-1.119-2.5-2.5c0-1.381 1.119-2.5 2.5-2.5s2.5 1.119 2.5 2.5zM0 0v32h32v-32h-32zM1 1.125h30v29.875h-30v-29.875z"></path>
</svg>
