<?xml version="1.0" encoding="utf-8"?>
<!-- Generated by IcoMoon.io -->
<!DOCTYPE svg PUBLIC "-//W3C//DTD SVG 1.1//EN" "http://www.w3.org/Graphics/SVG/1.1/DTD/svg11.dtd">
<svg version="1.1" xmlns="http://www.w3.org/2000/svg" xmlns:xlink="http://www.w3.org/1999/xlink" width="32" height="32" viewBox="0 0 32 32">
<path fill="#444444" d="M0.063 0.063v32h32v-32h-32zM1.063 1.063h30v30h-30v-30z"></path>
<path fill="#444444" d="M0.078 0.078v2.906l1.875 1.875-1.875 1.906v8.938l1.188 1.188-1.188 1.188v10.344l0.469 0.469-0.469 0.469v2.656h2.75l0.406-0.406 0.406 0.406h10.438l1.156-1.156 1.156 1.156h9.063l1.844-1.844 1.844 1.844h2.875v-2.5l-2.031-2.031 2.031-2.031v-8.656l-1.344-1.344 1.344-1.344v-8.625l-1.313-1.313 1.313-1.313v-2.781h-2.656l-1.375 1.375-1.375-1.375h-8.563l-1.375 1.375-1.375-1.375h-8.563l-2.063 2.094-2.094-2.094h-2.5zM11.015 1.203l2.969 2.969-3.656 3.656-2.969-2.969 3.656-3.656zM22.328 1.203l2.969 2.969-2.969 2.938-2.938-2.938 2.938-2.969zM16.672 6.859l2.969 2.969-3.656 3.656-2.969-2.969 3.656-3.656zM27.984 6.859l2.969 2.969-2.969 2.938-2.938-2.938 2.938-2.969zM4.672 7.547l2.938 2.969-3.656 3.688-2.969-2.969 3.688-3.688zM22.328 12.515l2.969 2.969-3.656 3.656-2.969-2.969 3.656-3.656zM10.328 13.203l2.938 2.969-3.656 3.688-2.969-2.969 3.688-3.688zM27.984 18.14l2.969 3-3.656 3.656-3-3 3.688-3.656zM15.984 18.859l2.969 2.969-3.688 3.688-2.969-2.969 3.688-3.688zM3.953 19.578l2.969 2.969-3.688 3.656-2.938-2.969 3.656-3.656zM21.609 24.515l3 2.969-3.688 3.688-2.969-3 3.656-3.656zM9.609 25.234l2.969 2.969-3.688 3.656-2.938-2.969 3.656-3.656z"></path>
</svg>
