<?xml version="1.0" encoding="utf-8"?>
<!-- Generated by IcoMoon.io -->
<!DOCTYPE svg PUBLIC "-//W3C//DTD SVG 1.1//EN" "http://www.w3.org/Graphics/SVG/1.1/DTD/svg11.dtd">
<svg version="1.1" xmlns="http://www.w3.org/2000/svg" xmlns:xlink="http://www.w3.org/1999/xlink" width="32" height="32" viewBox="0 0 32 32">
<path fill="#444444" d="M0 0v0.063h-0.063v32h32v-32h-6.156l-0.063-0.063h-2.656l0.063 0.063h-0.75l0.063-0.063h-2.688l-0.063 0.063h-5.219l-0.063-0.063h-2.656l0.063 0.063h-0.75l0.063-0.063h-2.688l-0.063 0.063h-6.625l-0.063-0.063h-1.688zM2.75 1.063h4.625l-2.313 2.344-2.313-2.344zM10.063 1.063h2.75l2.938 2.938-5.031 5.063-4.313-4.344 3.656-3.656zM15.469 1.063h3.219l-1.594 1.625-1.625-1.625zM21.375 1.063h2.75l2.938 2.938-4.313 4.344-4.344-4.344 2.969-2.938zM26.781 1.063h3.25l-1.625 1.625-1.625-1.625zM0.938 1.938l2.813 2.781-2.813 2.781v-5.563zM30.938 2.813v2.406l-1.219-1.219 1.219-1.188zM17.094 5.344l4.313 4.313-5.031 5.063-4.313-4.344 5.031-5.031zM28.406 5.344l2.531 2.531v3.563l-2.531 2.563-4.344-4.344 4.344-4.313zM5.063 6.031l4.344 4.344-5.063 5.031-3.406-3.406v-1.813l4.125-4.156zM22.75 11l4.313 4.313-5.031 5.063-4.313-4.344 5.031-5.031zM10.719 11.719l4.344 4.313-5.031 5.031-4.344-4.313 5.031-5.031zM30.938 14.125v2.406l-1.219-1.219 1.219-1.188zM0.938 14.656l2.094 2.094-2.094 2.094v-4.188zM28.406 16.656l2.531 2.531v3.563l-3.25 3.281-4.313-4.344 5.031-5.031zM16.375 17.375l4.344 4.313-5.031 5.031-4.344-4.313 5.031-5.031zM4.344 18.063l4.344 4.344-5.031 5.031-2.719-2.719v-3.25l3.406-3.406zM22.031 23.031l4.344 4.313-3.719 3.719h-2.625l-3.031-3 5.031-5.031zM10.031 23.719l4.313 4.344-3 3h-4.063l-2.313-2.313 5.063-5.031zM30.938 25.438v3.844l-1.906-1.938 1.906-1.906zM0.938 27.375l1.375 1.375-1.375 1.406v-2.781zM27.688 28.688l2.406 2.375h-4.781l2.375-2.375zM15.688 29.375l1.656 1.688h-3.375l1.719-1.688zM3.656 30.094l0.969 0.969h-1.938l0.969-0.969z"></path>
</svg>
