<?xml version="1.0" encoding="utf-8"?>
<!-- Generated by IcoMoon.io -->
<!DOCTYPE svg PUBLIC "-//W3C//DTD SVG 1.1//EN" "http://www.w3.org/Graphics/SVG/1.1/DTD/svg11.dtd">
<svg version="1.1" xmlns="http://www.w3.org/2000/svg" xmlns:xlink="http://www.w3.org/1999/xlink" width="32" height="32" viewBox="0 0 32 32">
<path fill="#444444" d="M25 0c-3.866 0-7 3.134-7 7s3.134 7 7 7c3.866 0 7-3.134 7-7s-3.134-7-7-7zM25 1.75c2.899 0 5.25 2.351 5.25 5.25s-2.351 5.25-5.25 5.25c-2.899 0-5.25-2.351-5.25-5.25s2.351-5.25 5.25-5.25zM15.875 10c-0.413 0.087-0.719 0.449-0.719 0.882 0 0.009 0 0.017 0 0.026l-0 4.092h-3.969c-0.039-0.006-0.084-0.009-0.13-0.009-0.497 0-0.9 0.403-0.9 0.9s0.403 0.9 0.9 0.9c0.046 0 0.091-0.003 0.135-0.010l3.964 0.001v4.094c0 0.5 0.406 0.906 0.906 0.906s0.906-0.406 0.906-0.906v-4.094h3.969c0.039 0.006 0.084 0.009 0.13 0.009 0.497 0 0.9-0.403 0.9-0.9s-0.403-0.9-0.9-0.9c-0.046 0-0.091 0.003-0.135 0.010l-3.964-0.001v-4.094c0-0.004 0-0.008 0-0.012 0-0.497-0.403-0.9-0.9-0.9-0.035 0-0.070 0.002-0.104 0.006-0.010-0.001-0.026-0.002-0.043-0.002s-0.033 0-0.049 0.001zM18.844 12.063c-0.213 0.042-0.395 0.155-0.525 0.312l-0.85 0.813c-0.21 0.166-0.343 0.421-0.343 0.707 0 0.497 0.403 0.9 0.9 0.9 0.278 0 0.527-0.126 0.692-0.325l0.907-0.845c0.181-0.165 0.295-0.402 0.295-0.666 0-0.497-0.403-0.9-0.9-0.9-0.029 0-0.058 0.001-0.086 0.004-0.010-0.001-0.027-0.002-0.043-0.002s-0.033 0-0.049 0.001zM13.75 17.125c-0.207 0.051-0.381 0.168-0.503 0.326l-0.84 0.799c-0.173 0.165-0.281 0.398-0.281 0.656 0 0.5 0.406 0.906 0.906 0.906 0.242 0 0.463-0.095 0.625-0.25l0.906-0.875c0.184-0.166 0.299-0.404 0.299-0.67 0-0.497-0.403-0.9-0.9-0.9-0.042 0-0.082 0.003-0.123 0.008-0.009-0.001-0.026-0.002-0.042-0.002s-0.033 0-0.049 0.001zM7 18c-3.866 0-7 3.134-7 7s3.134 7 7 7c3.866 0 7-3.134 7-7s-3.134-7-7-7zM7 19.75c2.899 0 5.25 2.351 5.25 5.25s-2.351 5.25-5.25 5.25c-2.899 0-5.25-2.351-5.25-5.25s2.351-5.25 5.25-5.25z"></path>
</svg>
