<?xml version="1.0" encoding="utf-8"?>
<!-- Generated by IcoMoon.io -->
<!DOCTYPE svg PUBLIC "-//W3C//DTD SVG 1.1//EN" "http://www.w3.org/Graphics/SVG/1.1/DTD/svg11.dtd">
<svg version="1.1" xmlns="http://www.w3.org/2000/svg" xmlns:xlink="http://www.w3.org/1999/xlink" width="32" height="32" viewBox="0 0 32 32">
<path fill="#444444" d="M16.906 14.656c-0.207 0.051-0.381 0.168-0.503 0.326l-0.84 0.767c-0.173 0.165-0.281 0.398-0.281 0.656 0 0.5 0.406 0.906 0.906 0.906 0.242 0 0.463-0.095 0.625-0.25l0.906-0.843c0.201-0.166 0.328-0.416 0.328-0.695 0-0.497-0.403-0.9-0.9-0.9-0.086 0-0.169 0.012-0.247 0.034zM14.313 17.313c-0.252 0.008-0.476 0.119-0.634 0.291l-0.897 0.834c-0.173 0.165-0.281 0.398-0.281 0.656 0 0.5 0.406 0.906 0.906 0.906 0.242 0 0.463-0.095 0.625-0.25l0.906-0.875c0.179-0.165 0.291-0.401 0.291-0.663 0-0.497-0.403-0.9-0.9-0.9-0.006 0-0.011 0-0.017 0zM21.813 0c-0.413 0.087-0.719 0.449-0.719 0.882 0 0.009 0 0.017 0 0.026l-0 8.186h-8.188c-0.501 0-0.906 0.406-0.906 0.906s0.406 0.906 0.906 0.906h8.188v8.188c0 0.5 0.406 0.906 0.906 0.906s0.906-0.406 0.906-0.906v-8.188h8.188c0.5 0 0.906-0.406 0.906-0.906s-0.406-0.906-0.906-0.906h-8.188v-8.188c0-0.008 0-0.018 0-0.027 0-0.497-0.403-0.9-0.9-0.9-0.069 0-0.136 0.008-0.2 0.022zM22 3c-3.866 0-7 3.134-7 7s3.134 7 7 7c3.866 0 7-3.134 7-7s-3.134-7-7-7zM22 4.75c2.899 0 5.25 2.351 5.25 5.25s-2.351 5.25-5.25 5.25c-2.899 0-5.25-2.351-5.25-5.25s2.351-5.25 5.25-5.25zM7 18c-3.866 0-7 3.134-7 7s3.134 7 7 7c3.866 0 7-3.134 7-7s-3.134-7-7-7zM7 19.75c2.899 0 5.25 2.351 5.25 5.25s-2.351 5.25-5.25 5.25c-2.899 0-5.25-2.351-5.25-5.25s2.351-5.25 5.25-5.25z"></path>
</svg>
