<?xml version="1.0" encoding="utf-8"?>
<!-- Generated by IcoMoon.io -->
<!DOCTYPE svg PUBLIC "-//W3C//DTD SVG 1.1//EN" "http://www.w3.org/Graphics/SVG/1.1/DTD/svg11.dtd">
<svg version="1.1" xmlns="http://www.w3.org/2000/svg" xmlns:xlink="http://www.w3.org/1999/xlink" width="32" height="32" viewBox="0 0 32 32">
<path fill="#444444" d="M6.857 27.429h13.714v-6.857h-13.714v6.857zM22.857 27.429h2.286v-16q0-0.25-0.178-0.688t-0.358-0.616l-5.018-5.018q-0.178-0.178-0.607-0.358t-0.696-0.178v7.429q0 0.714-0.501 1.214t-1.214 0.501h-10.286q-0.714 0-1.214-0.501t-0.501-1.214v-7.429h-2.286v22.857h2.286v-7.429q0-0.714 0.501-1.214t1.214-0.501h14.857q0.714 0 1.214 0.501t0.501 1.214v7.429zM16 10.857v-5.714q0-0.232-0.169-0.402t-0.402-0.169h-3.429q-0.232 0-0.402 0.169t-0.169 0.402v5.714q0 0.232 0.169 0.402t0.402 0.169h3.429q0.232 0 0.402-0.169t0.169-0.402zM27.429 11.429v16.571q0 0.714-0.501 1.214t-1.214 0.501h-24q-0.714 0-1.214-0.501t-0.501-1.214v-24q0-0.714 0.501-1.214t1.214-0.501h16.571q0.714 0 1.571 0.358t1.358 0.857l5 5q0.501 0.501 0.857 1.358t0.358 1.571z"></path>
</svg>
