<?xml version="1.0" encoding="utf-8"?>
<!-- Generated by IcoMoon.io -->
<!DOCTYPE svg PUBLIC "-//W3C//DTD SVG 1.1//EN" "http://www.w3.org/Graphics/SVG/1.1/DTD/svg11.dtd">
<svg version="1.1" xmlns="http://www.w3.org/2000/svg" xmlns:xlink="http://www.w3.org/1999/xlink" width="32" height="32" viewBox="0 0 32 32">
<path fill="#444444" d="M1.719 0c-0.475 0.001-0.885 0.167-1.219 0.5s-0.5 0.743-0.5 1.219v28.563c0.001 0.475 0.167 0.885 0.5 1.219s0.743 0.5 1.219 0.5h24c0.475-0.001 0.885-0.167 1.219-0.5s0.5-0.743 0.5-1.219v-20.563c-0.001-0.476-0.138-0.991-0.375-1.563s-0.51-1.041-0.844-1.375l-5.563-5.563c-0.334-0.333-0.804-0.636-1.375-0.875s-1.087-0.344-1.563-0.344h-16zM2.281 2.281h13.719v7.438c0.001 0.475 0.167 0.885 0.5 1.219s0.743 0.5 1.219 0.5h7.438v18.281h-22.875v-27.438zM18.281 2.438c0.346 0.119 0.607 0.232 0.75 0.375l5.563 5.594c0.143 0.143 0.288 0.405 0.406 0.75h-6.719v-6.719zM5.906 16.375c-0.745 0-1.32 0.092-1.75 0.281-0.426 0.186-0.754 0.452-0.969 0.781-0.212 0.326-0.313 0.663-0.313 1.031 0 0.56 0.208 1.014 0.625 1.375 0.413 0.361 1.092 0.657 2.063 0.875 0.592 0.13 0.962 0.26 1.125 0.406s0.25 0.314 0.25 0.5c0 0.195-0.077 0.381-0.25 0.531-0.169 0.146-0.403 0.219-0.719 0.219-0.423 0-0.772-0.148-1-0.438-0.14-0.179-0.204-0.439-0.25-0.781l-2.125 0.125c0.062 0.723 0.344 1.313 0.813 1.781s1.314 0.719 2.531 0.719c0.693 0 1.263-0.114 1.719-0.313 0.456-0.202 0.809-0.488 1.063-0.875s0.375-0.791 0.375-1.25c0-0.391-0.089-0.747-0.281-1.063-0.189-0.316-0.486-0.601-0.906-0.813-0.417-0.215-1.127-0.417-2.094-0.625-0.391-0.081-0.646-0.156-0.75-0.25-0.107-0.091-0.156-0.199-0.156-0.313 0-0.156 0.089-0.299 0.219-0.406 0.13-0.111 0.305-0.156 0.563-0.156 0.313 0 0.574 0.072 0.75 0.219 0.179 0.146 0.288 0.365 0.344 0.688l2.094-0.125c-0.091-0.742-0.393-1.255-0.875-1.594-0.479-0.342-1.179-0.531-2.094-0.531zM21.25 16.375c-0.82 0-1.484 0.113-1.969 0.344-0.622 0.299-1.084 0.733-1.406 1.313-0.322 0.576-0.5 1.281-0.5 2.063 0 0.742 0.176 1.396 0.469 1.969 0.296 0.573 0.685 0.992 1.219 1.281 0.537 0.29 1.244 0.438 2.094 0.438 0.69 0 1.28-0.090 1.781-0.25 0.505-0.163 1.096-0.46 1.75-0.906v-3.063h-3.438v1.5h1.5v0.688c-0.29 0.173-0.557 0.272-0.781 0.344s-0.471 0.125-0.719 0.125c-0.521 0-0.926-0.168-1.219-0.5-0.29-0.332-0.438-0.881-0.438-1.656 0-0.729 0.151-1.258 0.438-1.594 0.29-0.339 0.671-0.531 1.156-0.531 0.326 0 0.604 0.076 0.813 0.219 0.212 0.143 0.35 0.355 0.438 0.625l2.156-0.375c-0.13-0.462-0.333-0.857-0.594-1.156-0.257-0.303-0.575-0.513-0.969-0.656-0.391-0.143-0.99-0.219-1.781-0.219zM9.5 16.5l2.719 7.156h2.375l2.656-7.156h-2.219l-1.594 5.156-1.625-5.156h-2.313z"></path>
</svg>
