<?xml version="1.0" encoding="utf-8"?>
<!-- Generated by IcoMoon.io -->
<!DOCTYPE svg PUBLIC "-//W3C//DTD SVG 1.1//EN" "http://www.w3.org/Graphics/SVG/1.1/DTD/svg11.dtd">
<svg version="1.1" xmlns="http://www.w3.org/2000/svg" xmlns:xlink="http://www.w3.org/1999/xlink" width="34" height="32" viewBox="0 0 34 32">
<path fill="#444444" d="M31.803 16.625q0-0.625-0.946-0.625h-19.429q-0.714 0-1.527 0.384t-1.277 0.937l-5.25 6.482q-0.321 0.429-0.321 0.714 0 0.625 0.946 0.625h19.429q0.714 0 1.536-0.393t1.267-0.946l5.25-6.482q0.321-0.393 0.321-0.696zM11.429 13.714h13.714v-2.857q0-0.714-0.501-1.214t-1.214-0.501h-10.286q-0.714 0-1.214-0.501t-0.501-1.214v-1.143q0-0.714-0.501-1.214t-1.214-0.501h-5.714q-0.714 0-1.214 0.501t-0.501 1.214v15.232l4.571-5.625q0.786-0.946 2.072-1.562t2.501-0.616zM34.089 16.625q0 1.107-0.822 2.143l-5.267 6.482q-0.768 0.946-2.072 1.562t-2.501 0.616h-19.429q-1.642 0-2.822-1.178t-1.178-2.822v-17.143q0-1.642 1.178-2.822t2.822-1.178h5.714q1.642 0 2.822 1.178t1.178 2.822v0.571h9.714q1.642 0 2.822 1.178t1.178 2.822v2.857h3.429q0.965 0 1.768 0.438t1.197 1.259q0.267 0.571 0.267 1.214z"></path>
</svg>
