<?xml version="1.0" encoding="utf-8"?>
<!-- Generated by IcoMoon.io -->
<!DOCTYPE svg PUBLIC "-//W3C//DTD SVG 1.1//EN" "http://www.w3.org/Graphics/SVG/1.1/DTD/svg11.dtd">
<svg version="1.1" xmlns="http://www.w3.org/2000/svg" xmlns:xlink="http://www.w3.org/1999/xlink" width="32" height="32" viewBox="0 0 32 32">
<path fill="#444444" d="M0 0v32h32v-32h-32zM1.013 1.143h29.974v29.837h-29.974v-29.837zM5.29 4.408c-0.773 0-1.41 0.295-1.951 0.898s-0.825 1.342-0.825 2.204c0 0.862 0.284 1.601 0.825 2.204s1.178 0.898 1.951 0.898c0.773 0 1.447-0.295 1.988-0.898s0.788-1.342 0.788-2.204c0-0.862-0.247-1.601-0.788-2.204s-1.215-0.898-1.988-0.898zM10.392 5.429c-0.126-0.001-0.209 0.061-0.3 0.163s-0.15 0.227-0.15 0.367v3.102c-0.001 0.141 0.058 0.265 0.15 0.367s0.175 0.163 0.3 0.163h17.632c0.126 0.001 0.246-0.061 0.338-0.163s0.113-0.227 0.113-0.367v-3.102c0.001-0.141-0.021-0.265-0.113-0.367s-0.212-0.163-0.338-0.163h-17.632zM5.29 12.694c-0.773 0-1.41 0.295-1.951 0.898s-0.825 1.342-0.825 2.204c0 0.862 0.284 1.56 0.825 2.163s1.178 0.939 1.951 0.939c0.773 0 1.447-0.336 1.988-0.939s0.788-1.301 0.788-2.163c0-0.862-0.247-1.601-0.788-2.204s-1.215-0.898-1.988-0.898zM10.392 13.714c-0.126-0.001-0.209 0.061-0.3 0.163s-0.15 0.227-0.15 0.367v3.102c-0.001 0.141 0.058 0.265 0.15 0.367s0.175 0.122 0.3 0.122h17.632c0.126 0.001 0.246-0.020 0.338-0.122s0.113-0.227 0.113-0.367v-3.102c0.001-0.141-0.021-0.265-0.113-0.367s-0.212-0.163-0.338-0.163h-17.632zM5.29 20.939c-0.773 0-1.41 0.295-1.951 0.898s-0.825 1.342-0.825 2.204c0 0.862 0.284 1.601 0.825 2.204s1.178 0.898 1.951 0.898c0.773 0 1.447-0.295 1.988-0.898s0.788-1.342 0.788-2.204c0-0.862-0.247-1.601-0.788-2.204s-1.215-0.898-1.988-0.898zM10.392 22c-0.126-0.001-0.209 0.020-0.3 0.122s-0.15 0.227-0.15 0.367v3.102c-0.001 0.141 0.058 0.265 0.15 0.367s0.175 0.163 0.3 0.163h17.632c0.126 0.001 0.246-0.061 0.338-0.163s0.113-0.227 0.113-0.367v-3.102c0.001-0.141-0.021-0.265-0.113-0.367s-0.212-0.122-0.338-0.122h-17.632z"></path>
</svg>
