<?xml version="1.0" encoding="utf-8"?>
<!-- Generated by IcoMoon.io -->
<!DOCTYPE svg PUBLIC "-//W3C//DTD SVG 1.1//EN" "http://www.w3.org/Graphics/SVG/1.1/DTD/svg11.dtd">
<svg version="1.1" xmlns="http://www.w3.org/2000/svg" xmlns:xlink="http://www.w3.org/1999/xlink" width="32" height="32" viewBox="0 0 32 32">
<path fill="#444444" d="M16 0c-8.837 0-16 7.163-16 16s7.163 16 16 16c8.837 0 16-7.163 16-16s-7.163-16-16-16zM16.75 2.031c7.383 0.39 13.25 6.489 13.25 13.969 0 2.162-0.5 4.203-1.375 6.031l-11.906-6.563h0.031v-13.438zM14.563 2.063c0.092-0.009 0.189 0.008 0.281 0v13.25h-12.813c0.336-6.934 5.697-12.556 12.531-13.25zM15.75 17.125l11.938 6.563c-2.504 3.797-6.799 6.313-11.688 6.313-7.343 0-13.35-5.652-13.938-12.844h13.688v-0.031z"></path>
</svg>
